<svg width="19" height="30" fill="none" xmlns="http://www.w3.org/2000/svg"><path d="M0 4a4 4 0 0 1 4-4h15v30H4a4 4 0 0 1-4-4V4Z" fill="#039"/><path d="M3 5a1 1 0 0 1 1-1h11a1 1 0 0 1 1 1v1.6H3V5Z" fill="#00C853"/><path fill="#fff" d="M3 6.6h13v2.6H3z"/><path d="M3 9.2h13v1.6a1 1 0 0 1-1 1H4a1 1 0 0 1-1-1V9.2Z" fill="#FF0023"/><g clip-path="url(#a)"><path fill-rule="evenodd" clip-rule="evenodd" d="M9.089 6.928c-.259.205-.43.521-.443.882-.017.474.245.893.635 1.09a1.065 1.065 0 0 1-.5.035 1.116 1.116 0 0 0 .597.074L9.5 9.2l.122-.191a1.129 1.129 0 0 0 .596-.074 1.064 1.064 0 0 1-.5-.035c.39-.197.652-.615.636-1.09a1.177 1.177 0 0 0-.443-.882c.183.255.27.592.216.944-.054.352-.238.65-.49.842l.033-1.727a.338.338 0 0 1-.17-.123.337.337 0 0 1-.17.123l.032 1.727a1.307 1.307 0 0 1-.49-.842 1.287 1.287 0 0 1 .217-.944Zm.73-.328a.267.267 0 0 1 .005.056c0 .124-.084.225-.188.225a.175.175 0 0 1-.137-.072.175.175 0 0 1-.137.072c-.104 0-.188-.1-.188-.225 0-.019.002-.037.006-.056.01.09.082.161.17.161a.17.17 0 0 0 .15-.094.17.17 0 0 0 .149.094c.088 0 .16-.07.17-.16Zm-1.11 2.164a1.015 1.015 0 0 1-.51-.878c0-.479.334-.88.781-.985-.322.172-.548.575-.548 1.044 0 .322.107.612.277.819Zm1.581 0a1.015 1.015 0 0 0 .51-.878c0-.479-.333-.88-.78-.985.322.172.547.575.547 1.044 0 .322-.106.612-.277.819Z" fill="#FF0023"/></g><path d="M3.916 20h-.47v-3.555h.47V20ZM4.888 19.912a.307.307 0 0 1-.09-.222c0-.088.03-.162.09-.222a.32.32 0 0 1 .225-.093.31.31 0 0 1 .222.093c.062.06.093.134.093.222 0 .086-.031.16-.093.222a.3.3 0 0 1-.22.09.313.313 0 0 1-.227-.09ZM7.575 18.562H6.74V20H6.27v-3.555h1.177c.4 0 .708.091.923.274.216.182.324.447.324.796 0 .221-.06.414-.18.578a1.064 1.064 0 0 1-.498.369l.835 1.509V20h-.503l-.772-1.438Zm-.835-.383h.72a.974.974 0 0 0 .332-.052.717.717 0 0 0 .24-.141c.063-.06.11-.13.141-.21a.792.792 0 0 0 .002-.54.538.538 0 0 0-.138-.217.638.638 0 0 0-.242-.14 1.107 1.107 0 0 0-.35-.048H6.74v1.348ZM9.466 19.912a.307.307 0 0 1-.09-.222c0-.088.03-.162.09-.222a.32.32 0 0 1 .225-.093.31.31 0 0 1 .222.093c.062.06.092.134.092.222 0 .086-.03.16-.092.222a.3.3 0 0 1-.22.09.313.313 0 0 1-.227-.09ZM3.916 27h-.47v-3.555h.47V27ZM6.129 25.562h-.835V27h-.472v-3.555H6c.4 0 .708.091.923.274.217.182.325.447.325.796 0 .221-.06.414-.18.578a1.064 1.064 0 0 1-.499.369l.835 1.509V27H6.9l-.771-1.438Zm-.835-.383h.72a.974.974 0 0 0 .332-.052.717.717 0 0 0 .24-.141c.063-.06.11-.13.14-.21a.792.792 0 0 0 .002-.54.538.538 0 0 0-.138-.217.638.638 0 0 0-.242-.14A1.107 1.107 0 0 0 6 23.832h-.705v1.348ZM9.919 26.072h-1.49L8.096 27h-.483l1.357-3.555h.41L10.74 27h-.48l-.34-.928Zm-1.348-.386H9.78l-.606-1.662-.603 1.662ZM14 27h-.472l-1.79-2.74V27h-.47v-3.555h.47l1.795 2.752v-2.752H14V27Z" fill="#fff"/><defs><clipPath id="a"><path fill="#fff" transform="translate(8.2 6.6)" d="M0 0h2.6v2.6H0z"/></clipPath></defs></svg>